<?xml version="1.0" encoding="UTF-8" standalone="no"?>
<svg
   xmlns:dc="http://purl.org/dc/elements/1.1/"
   xmlns:cc="http://creativecommons.org/ns#"
   xmlns:rdf="http://www.w3.org/1999/02/22-rdf-syntax-ns#"
   xmlns:svg="http://www.w3.org/2000/svg"
   xmlns="http://www.w3.org/2000/svg"
   xmlns:sodipodi="http://sodipodi.sourceforge.net/DTD/sodipodi-0.dtd"
   xmlns:inkscape="http://www.inkscape.org/namespaces/inkscape"
   height="58.425198"
   version="1.1"
   viewBox="0 0 60 58.425198"
   width="60"
   id="svg844"
   sodipodi:docname="500px.svg"
   inkscape:version="1.0beta2 (2b71d25, 2019-12-03)">
  <metadata
     id="metadata848">
    <rdf:RDF>
      <cc:Work
         rdf:about="">
        <dc:format>image/svg+xml</dc:format>
        <dc:type
           rdf:resource="http://purl.org/dc/dcmitype/StillImage" />
        <dc:title />
      </cc:Work>
    </rdf:RDF>
  </metadata>
  <sodipodi:namedview
     pagecolor="#ffffff"
     bordercolor="#666666"
     inkscape:document-rotation="0"
     borderopacity="1"
     objecttolerance="10"
     gridtolerance="10"
     guidetolerance="10"
     inkscape:pageopacity="0"
     inkscape:pageshadow="2"
     inkscape:window-width="1404"
     inkscape:window-height="855"
     id="namedview846"
     showgrid="false"
     inkscape:zoom="6.6338646"
     inkscape:cx="19.209726"
     inkscape:cy="42.9194"
     inkscape:window-x="36"
     inkscape:window-y="23"
     inkscape:window-maximized="1"
     inkscape:current-layer="layer1"
     lock-margins="true"
     fit-margin-top="0"
     fit-margin-left="0"
     fit-margin-right="0"
     fit-margin-bottom="0" />
  <desc
     id="desc835" />
  <defs
     id="defs837">
    <inkscape:path-effect
       effect="powerclip"
       id="path-effect2090"
       is_visible="true"
       lpeversion="1"
       inverse="true"
       flatten="false"
       hide_clip="false"
       message="Use fill-rule evenodd on &lt;b&gt;fill and stroke&lt;/b&gt; dialog if no flatten result after convert clip to paths." />
  </defs>
  <g
     inkscape:groupmode="layer"
     id="layer1"
     inkscape:label="Layer 1"
     style="display:inline;mix-blend-mode:normal">
    <path
       d="M 30 0 A 30 29.212599 0 0 0 0 29.212891 A 30 29.212599 0 0 0 30 58.425781 A 30 29.212599 0 0 0 60 29.212891 A 30 29.212599 0 0 0 30 0 z M 10.732422 18.828125 L 22.158203 18.828125 L 22.158203 22.224609 L 21.873047 22.224609 C 19.244605 22.224609 16.614722 22.228203 13.986328 22.220703 C 13.774062 22.22007 13.703638 22.279413 13.667969 22.490234 C 13.431486 23.887825 13.178072 25.281787 12.931641 26.677734 C 12.919991 26.743784 12.922109 26.811836 12.912109 26.962891 C 14.463007 25.406509 16.310135 25.111305 18.296875 25.476562 C 20.32501 25.849459 21.726177 27.066729 22.623047 28.9375 C 22.716417 28.720106 22.786325 28.534684 22.873047 28.357422 C 24.070069 25.910817 26.06331 24.674297 28.763672 24.533203 C 30.822769 24.425618 32.590912 25.16562 34.175781 26.421875 C 35.175969 27.214717 36.002981 28.175842 36.835938 29.130859 C 36.899028 29.203149 36.960675 29.276003 37.044922 29.373047 C 37.125872 29.280697 37.198484 29.199436 37.269531 29.117188 C 38.034255 28.231509 38.785838 27.331995 39.689453 26.578125 C 40.855659 25.605218 42.148324 24.863572 43.667969 24.634766 C 46.093801 24.269509 48.278254 24.781473 50.011719 26.617188 C 51.119059 27.78989 51.68063 29.227029 51.857422 30.814453 C 52.059498 32.628168 51.80782 34.369215 50.921875 35.986328 C 49.744361 38.135273 47.893442 39.248604 45.464844 39.439453 C 43.512318 39.593022 41.787096 38.975288 40.207031 37.876953 C 39.124247 37.124196 38.217484 36.184754 37.337891 35.214844 C 37.245931 35.113496 37.15596 35.010382 37.013672 34.849609 C 36.950192 34.942159 36.906863 35.030397 36.839844 35.097656 C 36.093803 35.846545 35.371347 36.623904 34.587891 37.332031 C 33.487005 38.327036 32.21789 39.059526 30.738281 39.318359 C 28.209276 39.760787 25.950126 39.216145 24.099609 37.351562 C 23.547588 36.79531 23.13511 36.143279 22.818359 35.429688 C 22.783569 35.351067 22.748673 35.273919 22.699219 35.164062 C 22.340927 35.932873 21.916491 36.6135 21.359375 37.207031 C 19.934944 38.724585 18.175085 39.516928 16.095703 39.589844 C 14.598769 39.642354 13.13193 39.450246 11.767578 38.804688 C 9.4823837 37.72347 8.2238098 35.927389 8.078125 33.388672 C 8.074485 33.325132 8.078125 33.260997 8.078125 33.177734 L 12.216797 33.177734 C 12.246307 33.332414 12.271727 33.496898 12.310547 33.658203 C 12.61303 34.91586 13.356821 35.782637 14.630859 36.097656 C 15.995065 36.435111 17.203766 36.115934 18.148438 35.039062 C 19.290039 33.737693 19.471683 31.555517 18.568359 30.080078 C 17.94534 29.062444 17.019361 28.538649 15.826172 28.466797 C 14.470896 28.385127 13.371531 28.846908 12.5625 29.953125 C 12.51319 30.020575 12.412019 30.089263 12.333984 30.089844 C 11.169428 30.098144 10.004449 30.09525 8.8398438 30.09375 C 8.8100467 30.09375 8.7805521 30.081246 8.7226562 30.066406 C 9.3929424 26.320284 10.061068 22.580547 10.732422 18.828125 z M 28.896484 28.566406 C 27.868555 28.616646 27.013443 29.180607 26.460938 30.203125 C 25.927115 31.191167 25.840541 32.234313 26.183594 33.291016 C 26.553048 34.428807 27.34859 35.125683 28.546875 35.324219 C 29.289664 35.447374 30.013984 35.352135 30.714844 35.082031 C 32.301071 34.4709 33.501246 33.362335 34.607422 32.09375 C 33.778299 31.214405 32.948337 30.377649 31.980469 29.693359 C 31.364778 29.258039 30.714208 28.883879 29.976562 28.689453 C 29.600279 28.590306 29.239127 28.54966 28.896484 28.566406 z M 44.914062 28.568359 C 44.311125 28.558781 43.729222 28.69814 43.166016 28.970703 C 41.673402 29.692949 40.605947 30.908621 39.486328 32.09375 C 40.437599 33.16902 41.43532 34.156924 42.722656 34.806641 C 43.327767 35.112038 43.960973 35.307065 44.640625 35.365234 C 46.139791 35.493465 47.310281 34.823787 47.830078 33.488281 C 48.213847 32.502222 48.220114 31.497999 47.806641 30.519531 C 47.378225 29.505716 46.640982 28.828651 45.525391 28.628906 C 45.320015 28.592134 45.115042 28.571552 44.914062 28.568359 z "
       style="fill:#f4f4f4;fill-opacity:1;stroke-width:1.0447"
       id="path2000" />
    <g
       style="mix-blend-mode:normal;fill:#5f0f40;fill-opacity:1;fill-rule:evenodd;stroke:none;stroke-width:1"
       transform="translate(-210.8534,-95.209958)"
       id="slice" />
  </g>
</svg>
