<?xml version="1.0" encoding="UTF-8" standalone="no"?>
<svg
   xmlns:dc="http://purl.org/dc/elements/1.1/"
   xmlns:cc="http://creativecommons.org/ns#"
   xmlns:rdf="http://www.w3.org/1999/02/22-rdf-syntax-ns#"
   xmlns:svg="http://www.w3.org/2000/svg"
   xmlns="http://www.w3.org/2000/svg"
   xmlns:sodipodi="http://sodipodi.sourceforge.net/DTD/sodipodi-0.dtd"
   xmlns:inkscape="http://www.inkscape.org/namespaces/inkscape"
   inkscape:version="1.0beta2 (2b71d25, 2019-12-03)"
   sodipodi:docname="linkedin.svg"
   id="svg835"
   xml:space="preserve"
   width="135.46666mm"
   viewBox="0 0 511.99997 511.99997"
   version="1.1"
   style="clip-rule:evenodd;fill-rule:evenodd;stroke-linejoin:round;stroke-miterlimit:2"
   height="135.46666mm"><metadata
     id="metadata841"><rdf:RDF><cc:Work
         rdf:about=""><dc:format>image/svg+xml</dc:format><dc:type
           rdf:resource="http://purl.org/dc/dcmitype/StillImage" /><dc:title></dc:title></cc:Work></rdf:RDF></metadata><defs
     id="defs839" /><sodipodi:namedview
     fit-margin-bottom="0"
     fit-margin-right="0"
     fit-margin-left="0"
     fit-margin-top="0"
     lock-margins="true"
     inkscape:current-layer="svg835"
     inkscape:window-maximized="1"
     inkscape:window-y="23"
     inkscape:window-x="36"
     inkscape:cy="352.54405"
     inkscape:cx="256"
     inkscape:zoom="1.2636719"
     units="mm"
     inkscape:pagecheckerboard="true"
     showgrid="false"
     id="namedview837"
     inkscape:window-height="855"
     inkscape:window-width="1404"
     inkscape:pageshadow="2"
     inkscape:pageopacity="0.29019608"
     guidetolerance="10"
     gridtolerance="10"
     objecttolerance="10"
     borderopacity="1"
     inkscape:document-rotation="0"
     bordercolor="#666666"
     pagecolor="#818181" /><path
     style="fill:#222222;fill-opacity:1"
     inkscape:connector-curvature="0"
     id="path833"
     d="M 256,0 C 397.29,0 512,114.71 512,256 512,397.29 397.29,512 256,512 114.71,512 0,397.29 0,256 0,114.71 114.71,0 256,0 Z M 175.963,399.871 V 199.95 h -66.464 v 199.921 z m 239.62,0 V 285.225 c 0,-61.409 -32.787,-89.976 -76.509,-89.976 -35.255,0 -51.047,19.389 -59.889,33.007 V 199.95 h -66.447 c 0.881,18.757 0,199.921 0,199.921 h 66.446 v -111.65 c 0,-5.976 0.43,-11.95 2.191,-16.221 4.795,-11.935 15.737,-24.299 34.095,-24.299 24.034,0 33.663,18.34 33.663,45.204 V 399.871 Z M 143.18,103.55 c -22.74,0 -37.597,14.95 -37.597,34.545 0,19.182 14.405,34.544 36.717,34.544 h 0.429 c 23.175,0 37.6,-15.362 37.6,-34.544 C 179.899,118.5 165.905,103.55 143.18,103.55 Z" /></svg>
