<?xml version="1.0"?>
<svg id="Layer_1" style="enable-background:new 0 0 128 128;" version="1.1" viewBox="0 0 128 128"
	xml:space="preserve" xmlns="http://www.w3.org/2000/svg" xmlns:xlink="http://www.w3.org/1999/xlink"><style type="text/css">
	.st0{fill:#FFFFFF;}
</style><g><circle cx="64" cy="64" r="64"/></g><g><path class="st0" d="M64,48c-8.8,0-16,7.2-16,16s7.2,16,16,16s16-7.2,16-16S72.8,48,64,48z"/><path class="st0" d="M100,39H78.5l-1.3-2.1c-0.7-1.2-2-1.9-3.4-1.9H54.2c-1.4,0-2.7,0.7-3.4,1.9L49.5,39H28c-2.2,0-4,1.8-4,4v42   c0,2.2,1.8,4,4,4h72c2.2,0,4-1.8,4-4V43C104,40.8,102.2,39,100,39z M64,84c-11,0-20-9-20-20s9-20,20-20s20,9,20,20S75,84,64,84z"/></g></svg>