<?xml version="1.0" encoding="UTF-8" standalone="no"?>
<svg
  id="Layer_1"
  style="enable-background:new 0 0 128 128;"
  version="1.1"
  viewBox="0 0 128 128"
  xml:space="preserve"
  sodipodi:docname="photo.svg"
  inkscape:version="1.2.2 (b0a84865, 2022-12-01)"
  xmlns:inkscape="http://www.inkscape.org/namespaces/inkscape"
  xmlns:sodipodi="http://sodipodi.sourceforge.net/DTD/sodipodi-0.dtd"
  xmlns="http://www.w3.org/2000/svg"
  xmlns:svg="http://www.w3.org/2000/svg"><defs
     id="defs24" /><sodipodi:namedview
     id="namedview22"
     pagecolor="#505050"
     bordercolor="#eeeeee"
     borderopacity="1"
     inkscape:showpageshadow="0"
     inkscape:pageopacity="0"
     inkscape:pagecheckerboard="0"
     inkscape:deskcolor="#505050"
     showgrid="false"
     inkscape:zoom="1.84375"
     inkscape:cx="67.525424"
     inkscape:cy="65.084746"
     inkscape:window-width="1309"
     inkscape:window-height="916"
     inkscape:window-x="0"
     inkscape:window-y="38"
     inkscape:window-maximized="0"
     inkscape:current-layer="Layer_1" /><style
     type="text/css"
     id="style9">
	.st0{fill:#222222;}
</style><g
     id="g13"
     style="fill:#ffffff"><circle
       cx="64"
       cy="64"
       r="64"
       id="circle11"
       style="fill:#ffffff" /></g><g
     id="g19"
     style="fill:#222222"><path
       class="st0"
       d="M64,48c-8.8,0-16,7.2-16,16s7.2,16,16,16s16-7.2,16-16S72.8,48,64,48z"
       id="path15"
       style="fill:#222222" /><path
       class="st0"
       d="M100,39H78.5l-1.3-2.1c-0.7-1.2-2-1.9-3.4-1.9H54.2c-1.4,0-2.7,0.7-3.4,1.9L49.5,39H28c-2.2,0-4,1.8-4,4v42   c0,2.2,1.8,4,4,4h72c2.2,0,4-1.8,4-4V43C104,40.8,102.2,39,100,39z M64,84c-11,0-20-9-20-20s9-20,20-20s20,9,20,20S75,84,64,84z"
       id="path17"
       style="fill:#222222" /></g></svg>