<?xml version="1.0" encoding="UTF-8" standalone="no"?>
<svg
   xmlns:dc="http://purl.org/dc/elements/1.1/"
   xmlns:cc="http://creativecommons.org/ns#"
   xmlns:rdf="http://www.w3.org/1999/02/22-rdf-syntax-ns#"
   xmlns:svg="http://www.w3.org/2000/svg"
   xmlns="http://www.w3.org/2000/svg"
   xmlns:sodipodi="http://sodipodi.sourceforge.net/DTD/sodipodi-0.dtd"
   xmlns:inkscape="http://www.inkscape.org/namespaces/inkscape"
   id="Layer_1"
   style="enable-background:new 0 0 128 128;"
   version="1.1"
   viewBox="0 0 128 128"
   xml:space="preserve"
   sodipodi:docname="email.svg"
   inkscape:version="1.0beta2 (2b71d25, 2019-12-03)"><metadata
     id="metadata879"><rdf:RDF><cc:Work
         rdf:about=""><dc:format>image/svg+xml</dc:format><dc:type
           rdf:resource="http://purl.org/dc/dcmitype/StillImage" /></cc:Work></rdf:RDF></metadata><defs
     id="defs877" /><sodipodi:namedview
     pagecolor="#ffffff"
     bordercolor="#666666"
     inkscape:document-rotation="0"
     borderopacity="1"
     objecttolerance="10"
     gridtolerance="10"
     guidetolerance="10"
     inkscape:pageopacity="0"
     inkscape:pageshadow="2"
     inkscape:window-width="1404"
     inkscape:window-height="855"
     id="namedview875"
     showgrid="false"
     inkscape:zoom="4.4220413"
     inkscape:cx="-14.391368"
     inkscape:cy="79.038137"
     inkscape:window-x="36"
     inkscape:window-y="23"
     inkscape:window-maximized="1"
     inkscape:current-layer="Layer_1" /><style
     type="text/css"
     id="style852">
	.st0{fill:#FFFFFF;}
</style><path
     d="M 63.703125 0 A 64 64 0 0 0 0 64 A 64 64 0 0 0 64 128 A 64 64 0 0 0 128 64 A 64 64 0 0 0 64 0 A 64 64 0 0 0 63.703125 0 z M 28 39 L 100 39 C 100.8 39 101.59922 39.299219 102.19922 39.699219 L 64 72.400391 L 25.800781 39.699219 C 26.400781 39.299219 27.2 39 28 39 z M 104 43.400391 L 104 85 C 104 87.2 102.2 89 100 89 L 28 89 C 25.8 89 24 87.2 24 85 L 24 43.5 L 61.400391 75.400391 C 62.900391 76.700391 65.099609 76.700391 66.599609 75.400391 L 104 43.400391 z "
     style="fill:#222222;fill-opacity:1"
     id="circle854" /><g
     id="g862"><g
       id="g860"><path
         class="st0"
         d="M64,28"
         id="path858" /></g></g></svg>
