<?xml version="1.0" encoding="UTF-8" standalone="no"?>
<svg
   xmlns:dc="http://purl.org/dc/elements/1.1/"
   xmlns:cc="http://creativecommons.org/ns#"
   xmlns:rdf="http://www.w3.org/1999/02/22-rdf-syntax-ns#"
   xmlns:svg="http://www.w3.org/2000/svg"
   xmlns="http://www.w3.org/2000/svg"
   xmlns:sodipodi="http://sodipodi.sourceforge.net/DTD/sodipodi-0.dtd"
   xmlns:inkscape="http://www.inkscape.org/namespaces/inkscape"
   inkscape:version="1.0beta2 (2b71d25, 2019-12-03)"
   sodipodi:docname="twitter.svg"
   id="svg834"
   xml:space="preserve"
   width="100%"
   viewBox="0 0 512 512"
   version="1.1"
   style="fill-rule:evenodd;clip-rule:evenodd;stroke-linejoin:round;stroke-miterlimit:2;"
   height="100%"><metadata
     id="metadata840"><rdf:RDF><cc:Work
         rdf:about=""><dc:format>image/svg+xml</dc:format><dc:type
           rdf:resource="http://purl.org/dc/dcmitype/StillImage" /><dc:title></dc:title></cc:Work></rdf:RDF></metadata><defs
     id="defs838" /><sodipodi:namedview
     inkscape:current-layer="svg834"
     inkscape:window-maximized="0"
     inkscape:window-y="23"
     inkscape:window-x="0"
     inkscape:cy="447.50541"
     inkscape:cx="203.77125"
     inkscape:zoom="1.2636719"
     lock-margins="true"
     showgrid="false"
     id="namedview836"
     inkscape:window-height="853"
     inkscape:window-width="1440"
     inkscape:pageshadow="2"
     inkscape:pageopacity="0"
     guidetolerance="10"
     gridtolerance="10"
     objecttolerance="10"
     borderopacity="1"
     inkscape:document-rotation="0"
     bordercolor="#666666"
     pagecolor="#ffffff" /><path
     style="fill:#f4f4f4;fill-opacity:1"
     id="Dark_Blue"
     d="M256,0c141.29,0 256,114.71 256,256c0,141.29 -114.71,256 -256,256c-141.29,0 -256,-114.71 -256,-256c0,-141.29 114.71,-256 256,-256Zm-46.848,391.04c113.536,0 175.616,-94.08 175.616,-175.616c0,-2.688 0,-5.376 -0.128,-7.936c12.032,-8.704 22.528,-19.584 30.848,-32c-11.008,4.864 -22.912,8.192 -35.456,9.728c12.8,-7.68 22.528,-19.712 27.136,-34.176c-11.904,7.04 -25.088,12.16 -39.168,14.976c-11.264,-12.032 -27.264,-19.456 -45.056,-19.456c-34.048,0 -61.696,27.648 -61.696,61.696c0,4.864 0.512,9.6 1.664,14.08c-51.328,-2.56 -96.768,-27.136 -127.232,-64.512c-5.248,9.088 -8.32,19.712 -8.32,30.976c0,21.376 10.88,40.32 27.52,51.328c-10.112,-0.256 -19.584,-3.072 -27.904,-7.68l0,0.768c0,29.952 21.248,54.784 49.536,60.544c-5.12,1.408 -10.624,2.176 -16.256,2.176c-3.968,0 -7.808,-0.384 -11.648,-1.152c7.808,24.576 30.592,42.368 57.6,42.88c-21.12,16.512 -47.744,26.368 -76.672,26.368c-4.992,0 -9.856,-0.256 -14.72,-0.896c27.008,17.664 59.52,27.904 94.336,27.904Z" /></svg>
